<?xml version="1.0" encoding="UTF-8"?>
<!-- Generated by Pixelmator Pro 3.1.1 -->
<svg width="262" height="262" viewBox="0 0 262 262" xmlns="http://www.w3.org/2000/svg" xmlns:xlink="http://www.w3.org/1999/xlink">
    <path id="Rounded-Rectangle" fill="#000000" fill-rule="evenodd" stroke="none" d="M 0 262 L 262 262 L 262 0 L 0 0 Z"/>
    <g id="Livello2">
        <g id="Livello1-2">
            <path id="Path" fill="pink" stroke="none" d="M 170.210983 57.344833 C 152.446198 39.6194 135.551346 22.672592 130.514938 3.618896 C 125.570107 22.672592 108.537895 39.6194 90.773109 57.344833 C 64.17173 83.955902 33.999081 114.093719 33.999081 159.346252 C 33.237183 194.333649 51.460186 226.994507 81.62854 244.711929 C 111.796898 262.429352 149.187195 262.429352 179.355545 244.711929 C 209.523911 226.994507 227.746918 194.333649 226.985016 159.346252 C 226.985016 114.093719 196.812363 83.955902 170.210983 57.344833 Z M 83.630577 168.140259 C 80.68055 171.85141 78.147141 175.87561 76.075966 180.140442 C 75.764175 180.8255 75.157501 181.331268 74.427689 181.514496 L 73.603546 181.514496 C 71.45163 181.514496 69.024994 177.30069 69.024994 177.30069 L 69.024994 177.30069 C 68.384003 176.29306 67.788788 175.239624 67.193573 174.14035 L 66.781502 173.270111 C 61.195675 160.491302 66.048935 142.307861 66.048935 142.307861 L 66.048935 142.307861 C 68.441383 133.445724 72.344635 125.06308 77.586891 117.528885 C 80.789642 112.744583 84.275566 108.156174 88.025986 103.788239 L 92.604538 108.368454 L 114.215302 130.445099 C 115.054749 131.383972 115.054749 132.80397 114.215302 133.742844 L 91.643044 158.796631 L 91.643044 158.796631 Z M 131.613785 231.393051 C 118.497711 231.316635 106.642181 223.562607 101.311485 211.574036 C 95.980789 199.58548 98.163185 185.584976 106.889618 175.789246 C 113.940582 167.40744 122.548264 159.163055 131.888504 148.307938 C 142.968597 160.124878 150.202713 168.231873 157.299469 177.117493 C 157.85553 177.802856 158.346054 178.53894 158.764603 179.31601 C 162.646271 184.841705 164.72525 191.432846 164.716721 198.186493 C 164.741043 206.984985 161.264175 215.431458 155.053528 221.661545 C 148.842896 227.891632 140.409119 231.393097 131.613785 231.393051 Z M 194.248367 178.30835 L 194.248367 178.30835 C 193.813889 179.705292 192.625015 180.734848 191.180756 180.964874 L 190.539734 180.964874 C 189.226395 180.53894 188.117249 179.641525 187.426331 178.445755 L 187.426331 178.445755 C 181.640793 169.764191 175.082001 161.624023 167.830124 154.124817 L 158.99353 144.964386 L 129.64502 114.505936 C 123.481758 108.79335 117.613594 102.770172 112.063377 96.459885 C 111.926834 96.220551 111.773849 95.990982 111.60553 95.772858 C 110.607094 94.36879 109.820343 92.825562 109.270462 91.192642 C 109.270462 90.917831 109.270462 90.597214 109.270462 90.322388 C 108.445023 85.26767 110.156921 80.130096 113.849014 76.581741 C 119.526421 70.902283 125.249603 65.177017 130.652298 59.222733 C 136.604416 65.818237 142.968597 72.138947 149.241211 78.413834 L 149.241211 78.413834 C 162.03772 90.334473 173.617401 103.498672 183.80928 117.712097 C 192.413727 129.900299 197.094009 144.425613 197.224442 159.346252 C 197.152283 165.777512 196.149872 172.164429 194.248367 178.30835 Z"/>
        </g>
    </g>
</svg>
