<svg width="31" height="40" viewBox="0 0 31 40" fill="none" xmlns="http://www.w3.org/2000/svg">
<path d="M21.88 8.51852C19.0263 5.70806 16.3125 3.02106 15.5034 0C14.7091 3.02106 11.9732 5.70806 9.11958 8.51852C4.84651 12.7378 -0.000228652 17.5163 -0.000228652 24.6914C-0.0451891 26.7293 0.32249 28.7556 1.08124 30.6513C1.83999 32.5471 2.97452 34.2741 4.41828 35.7311C5.86204 37.1881 7.58595 38.3457 9.48886 39.136C11.3918 39.9263 13.4354 40.3334 15.4998 40.3334C17.5642 40.3334 19.6078 39.9263 21.5107 39.136C23.4136 38.3457 25.1375 37.1881 26.5813 35.7311C28.025 34.2741 29.1596 32.5471 29.9183 30.6513C30.6771 28.7556 31.0447 26.7293 30.9998 24.6914C30.9998 17.5163 26.153 12.7378 21.88 8.51852ZM7.97225 26.0857C7.49838 26.6741 7.09143 27.3122 6.75873 27.9884C6.734 28.042 6.69736 28.0894 6.65152 28.1271C6.60569 28.1649 6.55183 28.1919 6.49396 28.2062H6.36157C6.0159 28.2062 5.62611 27.5381 5.62611 27.5381C5.52314 27.3784 5.42753 27.2113 5.33192 27.037L5.26573 26.8991C4.36845 24.8729 5.14805 21.9898 5.14805 21.9898C5.53236 20.5847 6.15935 19.2556 7.00143 18.061C7.5159 17.3024 8.07586 16.5749 8.6783 15.8824L9.41377 16.6086L12.8852 20.1089C12.9503 20.1808 12.9863 20.2739 12.9863 20.3704C12.9863 20.4668 12.9503 20.5599 12.8852 20.6318L9.25932 24.6042L7.97225 26.0857ZM15.68 36.1147C14.6485 36.1088 13.6406 35.8092 12.7772 35.2518C11.9138 34.6944 11.2316 33.903 10.8124 32.9723C10.3932 32.0417 10.2547 31.0114 10.4136 30.005C10.5726 28.9986 11.0221 28.0589 11.7084 27.2985C12.8411 25.9695 14.2237 24.6623 15.7241 22.9412C17.5039 24.8148 18.666 26.1002 19.8059 27.5091C19.8953 27.6177 19.9741 27.7344 20.0413 27.8577C20.6648 28.7338 20.9988 29.7788 20.9974 30.8497C20.9993 31.5404 20.8632 32.2247 20.5969 32.8634C20.3305 33.5021 19.9391 34.0827 19.4452 34.5718C18.9512 35.0609 18.3644 35.4489 17.7183 35.7137C17.0722 35.9785 16.3795 36.1147 15.68 36.1147ZM25.7412 27.6979C25.707 27.8065 25.6427 27.9034 25.5556 27.9779C25.4685 28.0523 25.3621 28.1012 25.2484 28.1191H25.1454C24.9345 28.0516 24.7563 27.9093 24.6453 27.7197C23.716 26.3432 22.6624 25.0525 21.4975 23.8635L20.0781 22.411L15.3637 17.5817C14.3737 16.6759 13.4311 15.7209 12.5395 14.7204C12.5176 14.6825 12.493 14.6461 12.466 14.6115C12.3056 14.3889 12.1792 14.1442 12.0909 13.8853C12.0909 13.8417 12.0909 13.7908 12.0909 13.7473C12.0256 13.3525 12.0584 12.9479 12.1865 12.5684C12.3146 12.1889 12.5342 11.8458 12.8263 11.5686C13.7383 10.6681 14.6577 9.76035 15.5255 8.81627C16.4816 9.86202 17.5039 10.8642 18.5115 11.8591C20.5671 13.7492 22.4271 15.8364 24.0643 18.09C25.4465 20.0225 26.1983 22.3256 26.2192 24.6914C26.2076 25.7111 26.0466 26.7237 25.7412 27.6979Z" fill="white"/>
</svg>
